<?xml version="1.0" encoding="iso-8859-1"?>
<!-- Generator: Adobe Illustrator 19.0.0, SVG Export Plug-In . SVG Version: 6.00 Build 0)  -->
<svg version="1.1" id="Capa_1" xmlns="http://www.w3.org/2000/svg" xmlns:xlink="http://www.w3.org/1999/xlink" x="0px" y="0px"
	 viewBox="0 0 480 480" style="enable-background:new 0 0 480 480;" xml:space="preserve">
<g>
	<g>
		<path d="M472,464h-16V72c0-4.8-3.2-8-8-8h-96c-4.8,0-8,3.2-8,8v392h-32V320c0-4.8-3.2-8-8-8h-96c-4.8,0-8,3.2-8,8v144h-32V192
			c0-4.8-3.2-8-8-8H64c-4.8,0-8,3.2-8,8v272H16v-32h16c4.8,0,8-3.2,8-8s-3.2-8-8-8H16v-32h16c4.8,0,8-3.2,8-8s-3.2-8-8-8H16v-32h16
			c4.8,0,8-3.2,8-8s-3.2-8-8-8H16v-32h16c4.8,0,8-3.2,8-8s-3.2-8-8-8H16v-32h16c4.8,0,8-3.2,8-8s-3.2-8-8-8H16v-32h16
			c4.8,0,8-3.2,8-8s-3.2-8-8-8H16v-32h16c4.8,0,8-3.2,8-8s-3.2-8-8-8H16V96h16c4.8,0,8-3.2,8-8s-3.2-8-8-8H16V48h16c4.8,0,8-3.2,8-8
			s-3.2-8-8-8H16V8c0-4.8-3.2-8-8-8S0,3.2,0,8v464c0,4.8,3.2,8,8,8h464c4.8,0,8-3.2,8-8S476.8,464,472,464z M152,464H72V200h80V464z
			 M296,464h-80V328h80V464z M440,464h-80V80h80V464z"/>
	</g>
</g>
<g>
</g>
<g>
</g>
<g>
</g>
<g>
</g>
<g>
</g>
<g>
</g>
<g>
</g>
<g>
</g>
<g>
</g>
<g>
</g>
<g>
</g>
<g>
</g>
<g>
</g>
<g>
</g>
<g>
</g>
</svg>
