<?xml version="1.0" encoding="iso-8859-1"?>
<!-- Generator: Adobe Illustrator 19.1.0, SVG Export Plug-In . SVG Version: 6.00 Build 0)  -->
<svg version="1.1" id="Capa_1" xmlns="http://www.w3.org/2000/svg" xmlns:xlink="http://www.w3.org/1999/xlink" x="0px" y="0px"
	 viewBox="0 0 425.377 425.377" style="enable-background:new 0 0 425.377 425.377;" xml:space="preserve">
<g>
	<g>
		<path d="M418.463,271.003H335.48c-3.823,0-6.914,3.09-6.914,6.914c0,3.823,3.09,6.914,6.914,6.914h82.977
			c3.824,0,6.921-3.09,6.92-6.914C425.377,274.094,422.287,271.003,418.463,271.003z"/>
		<path d="M148.799,98.15c3.824,0,6.914-3.091,6.914-6.914V8.259c0-3.823-3.09-6.914-6.914-6.914c-3.823,0-6.914,3.09-6.914,6.914
			v82.977C141.885,95.059,144.975,98.15,148.799,98.15z"/>
		<polygon points="0,167.277 6.444,179.515 61.992,150.275 61.992,421.15 75.82,421.15 75.82,138.825 65.684,132.706 		"/>
		<path d="M225.117,241.375c-28.846,0-48.994,6.561-60.803,12.051l11.692-107.695h129.199v-13.828h-135.4l-6.873,6.167
			l-13.828,127.338l11.146,6.188c0.207-0.159,21.565-16.386,64.868-16.386c21.89,0,41.658,8.076,55.645,22.741
			c14.263,14.948,21.516,36.022,20.417,59.33c-2.234,47.368-44.417,72.923-82.977,72.923c-41.865,0-72.64-23.646-72.951-23.881
			l-8.532,10.876c1.397,1.093,34.688,26.834,81.483,26.834c52.859,0,94.475-37.011,96.791-86.109
			c1.272-27.125-7.329-51.815-24.227-69.529C274.145,250.972,250.831,241.375,225.117,241.375z"/>
	</g>
</g>
<g>
</g>
<g>
</g>
<g>
</g>
<g>
</g>
<g>
</g>
<g>
</g>
<g>
</g>
<g>
</g>
<g>
</g>
<g>
</g>
<g>
</g>
<g>
</g>
<g>
</g>
<g>
</g>
<g>
</g>
</svg>
