<?xml version="1.0" encoding="iso-8859-1"?>
<!-- Generator: Adobe Illustrator 19.0.0, SVG Export Plug-In . SVG Version: 6.00 Build 0)  -->
<svg version="1.1" id="Capa_1" xmlns="http://www.w3.org/2000/svg" xmlns:xlink="http://www.w3.org/1999/xlink" x="0px" y="0px"
	 viewBox="0 0 400 400" style="enable-background:new 0 0 400 400;" xml:space="preserve">
<g>
	<g>
		<path d="M200,0C89.6,0,0,89.6,0,200s89.6,200,200,200s200-89.6,200-200S310.4,0,200,0z M208.8,16c94.4,4.8,170.4,80.8,175.2,176
			h-48c-4-68.8-59.2-123.2-127.2-127.2V16z M192,383.2c-98.4-4-176-84.8-176-183.2S93.6,20.8,192,16v48c-75.2,4-132,68-128,143.2
			c4,68.8,59.2,124,128,128V383.2z M80,200c0-66.4,53.6-120,120-120s120,53.6,120,120s-53.6,120-120,120S80,266.4,80,200z
			 M208.8,383.2v-48H208c30.4-1.6,59.2-13.6,82.4-34.4l34.4,34.4C292.8,364.8,252,381.6,208.8,383.2z M336,324l-34.4-33.6
			c20-22.4,32-52,34.4-82.4h48C382.4,251.2,364.8,292.8,336,324z"/>
	</g>
</g>
<g>
</g>
<g>
</g>
<g>
</g>
<g>
</g>
<g>
</g>
<g>
</g>
<g>
</g>
<g>
</g>
<g>
</g>
<g>
</g>
<g>
</g>
<g>
</g>
<g>
</g>
<g>
</g>
<g>
</g>
</svg>
