<?xml version="1.0" encoding="iso-8859-1"?>
<!-- Generator: Adobe Illustrator 19.0.0, SVG Export Plug-In . SVG Version: 6.00 Build 0)  -->
<svg version="1.1" id="Capa_1" xmlns="http://www.w3.org/2000/svg" xmlns:xlink="http://www.w3.org/1999/xlink" x="0px" y="0px"
	 viewBox="0 0 480 480" style="enable-background:new 0 0 480 480;" xml:space="preserve">
<g>
	<g>
		<path d="M472,464h-24v-16c0-4.8-3.2-8-8-8s-8,3.2-8,8v16h-32v-16c0-4.8-3.2-8-8-8s-8,3.2-8,8v16h-32v-16c0-4.8-3.2-8-8-8
			s-8,3.2-8,8v16h-32v-16c0-4.8-3.2-8-8-8s-8,3.2-8,8v16h-32v-16c0-4.8-3.2-8-8-8s-8,3.2-8,8v16h-32v-16c0-4.8-3.2-8-8-8s-8,3.2-8,8
			v16h-32v-16c0-4.8-3.2-8-8-8s-8,3.2-8,8v16h-32v-16c0-4.8-3.2-8-8-8s-8,3.2-8,8v16H64v-16c0-4.8-3.2-8-8-8s-8,3.2-8,8v16H16V8
			c0-4.8-3.2-8-8-8S0,3.2,0,8v464c0,4.8,3.2,8,8,8h464c4.8,0,8-3.2,8-8S476.8,464,472,464z"/>
	</g>
</g>
<g>
	<g>
		<path d="M347.2,288l90.4-90.4c3.2-3.2,3.2-8,0-11.2c-3.2-3.2-8-3.2-11.2,0L336,276.8l-42.4-42.4c-3.2-3.2-8-3.2-11.2,0L256,260.8
			l-50.4-50.4c-3.2-3.2-8-3.2-11.2,0L144,260.8l-98.4-98.4c-3.2-3.2-8-3.2-11.2,0c-3.2,3.2-3.2,8,0,11.2l98.4,98.4l-98.4,98.4
			c-3.2,3.2-3.2,8,0,11.2c3.2,3.2,8,3.2,11.2,0l98.4-98.4l50.4,50.4c3.2,3.2,8,3.2,11.2,0l50.4-50.4l42.4,42.4c3.2,3.2,8,3.2,11.2,0
			l26.4-26.4l90.4,90.4c3.2,3.2,8,3.2,11.2,0s3.2-8,0-11.2L347.2,288z M200,316.8L155.2,272l44.8-44.8l44.8,44.8L200,316.8z
			 M304,308.8L267.2,272l20.8-20.8l36.8,36.8L304,308.8z"/>
	</g>
</g>
<g>
</g>
<g>
</g>
<g>
</g>
<g>
</g>
<g>
</g>
<g>
</g>
<g>
</g>
<g>
</g>
<g>
</g>
<g>
</g>
<g>
</g>
<g>
</g>
<g>
</g>
<g>
</g>
<g>
</g>
</svg>
