<?xml version="1.0" encoding="iso-8859-1"?>
<!-- Generator: Adobe Illustrator 19.0.0, SVG Export Plug-In . SVG Version: 6.00 Build 0)  -->
<svg version="1.1" id="Capa_1" xmlns="http://www.w3.org/2000/svg" xmlns:xlink="http://www.w3.org/1999/xlink" x="0px" y="0px"
	 viewBox="0 0 440 440" style="enable-background:new 0 0 440 440;" xml:space="preserve">
<g>
	<g>
		<path d="M240,0c-4.8,0-8,3.2-8,8v184c0,4.8,3.2,8,8,8h192c4.8,0,8-3.2,8-8C436,84.8,347.2,0,240,0z M264,184h-16V16
			c5.6,0,10.4,0.8,16,1.6V184z M296,184h-16V20.8c5.6,1.6,10.4,2.4,16,4V184z M328,184h-16V30.4c5.6,2.4,11.2,4.8,16,8V184z
			 M360,184h-16V48c5.6,4,11.2,8,16,12V184z M392,184h-16V76c5.6,6.4,11.2,12.8,16,20V184z M408,184v-59.2
			c8,18.4,13.6,38.4,15.2,59.2H408z"/>
	</g>
</g>
<g>
	<g>
		<path d="M392,224H208V48c0-4.8-3.2-8-8-8C89.6,40,0,129.6,0,240s89.6,200,200,200s200-89.6,200-200c0-2.4,0-5.6,0-8
			C400,228,396,224,392,224z M200,424C98.4,424,16,341.6,16,240c0-98.4,77.6-179.2,176-184v176c0,4.8,3.2,8,8,8h184
			C384,341.6,301.6,424,200,424z"/>
	</g>
</g>
<g>
</g>
<g>
</g>
<g>
</g>
<g>
</g>
<g>
</g>
<g>
</g>
<g>
</g>
<g>
</g>
<g>
</g>
<g>
</g>
<g>
</g>
<g>
</g>
<g>
</g>
<g>
</g>
<g>
</g>
</svg>
